<svg xmlns="http://www.w3.org/2000/svg" viewBox="-25 -36 50 60" width="200" height="240">
  <title>Medjed - Pharaoh</title>
  <ellipse cx="0" cy="20" rx="13" ry="1.5" fill="#000" opacity="0.3"/>
  <path d="M -21 -16 C -22 -28, -15 -32, 0 -32 C 15 -32, 22 -28, 21 -16 L 21 -10 Q 12 -13, 0 -13 Q -12 -13, -21 -10 Z" fill="#1e5fa8" stroke="#3a2818" stroke-width="0.8"/>
  <rect x="-21" y="-30" width="42" height="2" fill="#d4af37"/>
  <rect x="-15" y="-26" width="1.5" height="14" fill="#d4af37"/>
  <rect x="-7" y="-26" width="1.5" height="14" fill="#d4af37"/>
  <rect x="0" y="-26" width="1.5" height="14" fill="#d4af37"/>
  <rect x="7" y="-26" width="1.5" height="14" fill="#d4af37"/>
  <rect x="14" y="-26" width="1.5" height="14" fill="#d4af37"/>
  <ellipse cx="0" cy="-25" rx="1.5" ry="2.5" fill="#d4af37"/>
  <path d="M -19 -10 L 19 -10 L 19 13 Q 15 11, 12.5 13 Q 10 15.5, 7.5 13 Q 5 11, 2.5 13 Q 0 15.5, -2.5 13 Q -5 11, -7.5 13 Q -10 15.5, -12.5 13 Q -15 11, -19 13 Z" fill="#f4f1ea" stroke="#3a2818" stroke-width="0.8" stroke-linejoin="round"/>
  <path d="M -14 -6 Q -9 -10, -4 -6 Q -9 -3, -14 -6 Z" fill="#f4f1ea" stroke="#1a1a1a" stroke-width="0.9" stroke-linejoin="round"/>
  <circle cx="-9" cy="-6.5" r="1.6" fill="#1a1a1a"/>
  <path d="M -14 -6 Q -9 -10, -4 -6" fill="none" stroke="#1a1a1a" stroke-width="1.4" stroke-linecap="round"/>
  <path d="M -14 -6 L -17 -4 L -15.5 -5.5 Z" fill="#1a1a1a"/>
  <path d="M 4 -6 Q 9 -10, 14 -6 Q 9 -3, 4 -6 Z" fill="#f4f1ea" stroke="#1a1a1a" stroke-width="0.9" stroke-linejoin="round"/>
  <circle cx="9" cy="-6.5" r="1.6" fill="#1a1a1a"/>
  <path d="M 4 -6 Q 9 -10, 14 -6" fill="none" stroke="#1a1a1a" stroke-width="1.4" stroke-linecap="round"/>
  <path d="M 14 -6 L 17 -4 L 15.5 -5.5 Z" fill="#1a1a1a"/>
  <rect x="-6.5" y="14" width="4.5" height="5.5" rx="1.2" fill="#f4d4a8" stroke="#3a2818" stroke-width="0.6" stroke-linejoin="round"/>
  <rect x="2" y="14" width="4.5" height="5.5" rx="1.2" fill="#f4d4a8" stroke="#3a2818" stroke-width="0.6" stroke-linejoin="round"/>
</svg>
