<svg xmlns="http://www.w3.org/2000/svg" viewBox="-25 -32 50 56" width="200" height="224">
  <title>Medjed - Mummy</title>
  <ellipse cx="0" cy="20" rx="13" ry="1.5" fill="#000" opacity="0.3"/>
  <path d="M -19 -5 C -20 -23, -14 -28, 0 -28 C 14 -28, 20 -23, 19 -5 L 19 12 Q 15 10, 13 13 Q 10 16, 7 12 Q 4 10, 2 14 Q 0 16, -2 13 Q -5 10, -8 14 Q -10 16, -13 12 Q -15 10, -19 13 Z" fill="#d8c8a8" stroke="#3a2818" stroke-width="0.8" stroke-linejoin="round"/>
  <line x1="-19" y1="-19" x2="19" y2="-19" stroke="#a89070" stroke-width="0.7" opacity="0.7"/>
  <line x1="-19" y1="2" x2="19" y2="2" stroke="#a89070" stroke-width="0.7" opacity="0.7"/>
  <line x1="-19" y1="9" x2="19" y2="9" stroke="#a89070" stroke-width="0.7" opacity="0.7"/>
  <path d="M -14 -13 Q -9 -16, -4 -13" fill="none" stroke="#1a1a1a" stroke-width="1" stroke-linecap="round"/>
  <path d="M 4 -13 Q 9 -16, 14 -13" fill="none" stroke="#1a1a1a" stroke-width="1" stroke-linecap="round"/>
  <path d="M -14 -6 Q -9 -10, -4 -6 Q -9 -3, -14 -6 Z" fill="#f4f1ea" stroke="#1a1a1a" stroke-width="0.9" stroke-linejoin="round"/>
  <circle cx="-9" cy="-6.5" r="1.6" fill="#a82020"/>
  <circle cx="-9" cy="-7" r="0.6" fill="#ff5050"/>
  <path d="M -14 -6 Q -9 -10, -4 -6" fill="none" stroke="#1a1a1a" stroke-width="1.4" stroke-linecap="round"/>
  <path d="M -14 -6 L -17 -4 L -15.5 -5.5 Z" fill="#1a1a1a"/>
  <path d="M 4 -6 Q 9 -10, 14 -6 Q 9 -3, 4 -6 Z" fill="#f4f1ea" stroke="#1a1a1a" stroke-width="0.9" stroke-linejoin="round"/>
  <circle cx="9" cy="-6.5" r="1.6" fill="#a82020"/>
  <circle cx="9" cy="-7" r="0.6" fill="#ff5050"/>
  <path d="M 4 -6 Q 9 -10, 14 -6" fill="none" stroke="#1a1a1a" stroke-width="1.4" stroke-linecap="round"/>
  <path d="M 14 -6 L 17 -4 L 15.5 -5.5 Z" fill="#1a1a1a"/>
  <rect x="-6.5" y="14" width="4.5" height="5.5" rx="1.2" fill="#d8c8a8" stroke="#3a2818" stroke-width="0.6" stroke-linejoin="round"/>
  <line x1="-6.5" y1="16.5" x2="-2" y2="16.5" stroke="#a89070" stroke-width="0.6"/>
  <rect x="2" y="14" width="4.5" height="5.5" rx="1.2" fill="#d8c8a8" stroke="#3a2818" stroke-width="0.6" stroke-linejoin="round"/>
  <line x1="2" y1="16.5" x2="6.5" y2="16.5" stroke="#a89070" stroke-width="0.6"/>
</svg>
